<svg width="400" height="250" viewBox="0 0 400 250" fill="none" xmlns="http://www.w3.org/2000/svg">
<g clip-path="url(#clip0_3_4)">
<rect width="400" height="250" fill="white"/>
<path d="M26.919 188.389C25.0196 188.389 23.1163 188.461 21.2576 188.607L20.9871 188.628C8.65819 189.636 -0.359851 195.479 0.0110355 202.222L0.0827364 203.441C0.13002 204.211 0.180398 205.04 0.221865 205.959C0.244324 206.412 0.91366 206.76 1.74652 206.76H305.008C326.39 206.64 347.693 206.489 368.325 206.311C372.194 206.319 376.061 206.134 379.909 205.757C385.642 205.13 389.622 203.887 392.076 201.956H392.076C395.128 199.563 395.224 196.549 395.04 193.144C394.664 186.267 394.291 179.044 393.919 171.842C393.59 165.495 393.263 159.165 392.936 153.105C392.734 149.509 392.284 146.334 388.819 143.908C385.062 141.284 378.212 139.954 368.457 139.954C368.339 139.954 368.222 139.954 368.103 139.955C337.533 140.055 307.242 149.77 292.73 164.128C291.058 165.782 289.501 167.552 287.995 169.264C285.77 171.793 283.469 174.408 280.724 176.746C279.237 178.03 277.63 179.188 275.921 180.207C275.803 180.282 275.668 180.363 275.525 180.439C275.199 180.636 274.858 180.825 274.525 180.994C272.578 182.033 270.527 182.895 268.4 183.568L268.185 183.634C268.023 183.688 267.848 183.741 267.673 183.79C266.444 184.154 265.168 184.47 263.89 184.724C258.358 185.851 252.067 186.121 245.194 185.527C238.882 184.966 232.651 183.792 226.605 182.026C220.24 180.167 214.282 177.849 208.521 175.608C205.99 174.623 203.373 173.605 200.759 172.64C200.267 172.458 199.784 172.281 199.293 172.103C196.101 170.953 193.206 170.004 190.444 169.2C183.602 167.201 176.52 165.988 169.357 165.59C161.754 165.205 155.053 165.931 149.447 167.742C147.901 168.239 146.396 168.838 144.944 169.535C138.303 172.722 134.21 177.425 130.251 181.974C125.327 187.632 120.235 193.483 110.18 196.516C98.5777 200.019 81.6423 198.563 69.6606 196.033C65.8936 195.237 62.1312 194.321 58.4924 193.436C57.0228 193.078 55.5522 192.722 54.0805 192.37C51.1885 191.68 48.8217 191.151 46.6321 190.704L45.9395 190.562C45.5542 190.485 45.1686 190.407 44.776 190.334C42.1752 189.829 39.7533 189.432 37.3683 189.12L36.804 189.044C35.6727 188.906 34.6151 188.791 33.5772 188.695L33.1629 188.657C31.1302 188.478 29.0266 188.389 26.919 188.389Z" fill="#F2F2F2"/>
<path d="M340.509 195.914C349.042 188.807 361.735 185.234 372.381 189.219C361.46 194.822 353.036 203.816 348.599 214.607C346.904 218.775 345.488 223.573 341.319 225.804C338.725 227.193 335.498 227.26 332.59 226.59C329.681 225.92 327.015 224.576 324.386 223.246L323.637 223.231C326.996 213.079 331.976 203.02 340.509 195.914Z" fill="#E6E6E6"/>
<path d="M372.322 189.435C362.893 190.561 354.087 194.404 347.156 200.419C345.639 201.689 344.348 203.172 343.331 204.814C342.396 206.443 341.95 208.274 342.039 210.116C342.085 211.835 342.348 213.588 341.941 215.288C341.719 216.155 341.301 216.969 340.714 217.676C340.128 218.383 339.386 218.968 338.538 219.392C336.454 220.499 334.065 220.848 331.715 221.114C329.106 221.41 326.391 221.678 324.133 223.031C323.859 223.195 323.6 222.793 323.873 222.629C327.802 220.276 332.774 221.132 336.999 219.562C338.97 218.829 340.715 217.543 341.332 215.598C341.872 213.898 341.603 212.089 341.54 210.349C341.424 208.553 341.786 206.758 342.594 205.122C343.517 203.437 344.744 201.91 346.222 200.606C349.498 197.622 353.262 195.132 357.375 193.227C362.056 191.03 367.11 189.589 372.317 188.967C372.639 188.928 372.642 189.396 372.322 189.435H372.322Z" fill="white"/>
<path d="M349.264 198.361C348.33 197.149 347.893 195.67 348.03 194.187C348.167 192.705 348.869 191.316 350.012 190.268C350.244 190.057 350.611 190.38 350.378 190.592C349.312 191.566 348.657 192.86 348.533 194.24C348.408 195.621 348.822 196.997 349.699 198.121C349.889 198.365 349.453 198.604 349.264 198.361V198.361Z" fill="white"/>
<path d="M341.892 209.247C345.132 209.778 348.47 209.16 351.239 207.517C351.513 207.354 351.772 207.756 351.499 207.919C348.613 209.623 345.138 210.26 341.768 209.701C341.446 209.647 341.572 209.194 341.892 209.247V209.247Z" fill="white"/>
<path d="M362.098 191.649C362.353 192.188 362.75 192.659 363.251 193.021C363.753 193.383 364.344 193.624 364.971 193.723C365.293 193.772 365.167 194.226 364.847 194.176C364.155 194.064 363.502 193.797 362.947 193.399C362.392 193 361.951 192.482 361.663 191.889C361.631 191.835 361.622 191.772 361.638 191.713C361.654 191.653 361.695 191.602 361.75 191.568C361.808 191.537 361.877 191.528 361.942 191.543C362.007 191.558 362.063 191.596 362.098 191.649V191.649Z" fill="white"/>
<path d="M384.105 223.49C383.903 223.464 383.701 223.438 383.496 223.415C380.78 223.082 378.039 222.954 375.3 223.031C375.088 223.033 374.874 223.039 374.662 223.048C368.066 223.298 361.577 224.679 355.526 227.119C353.119 228.092 350.796 229.232 348.576 230.531C345.511 232.325 342.342 234.495 338.915 235.226C338.559 235.306 338.197 235.366 337.833 235.405L323.675 224.075C323.657 224.035 323.635 223.997 323.617 223.956L323.029 223.528C323.139 223.453 323.254 223.378 323.364 223.304C323.427 223.26 323.493 223.22 323.556 223.176C323.6 223.148 323.643 223.12 323.68 223.092C323.695 223.083 323.709 223.074 323.721 223.067C323.758 223.04 323.796 223.018 323.83 222.993C324.473 222.572 325.12 222.155 325.771 221.741C325.774 221.738 325.774 221.738 325.78 221.738C330.711 218.541 336.034 215.897 341.639 213.859C341.807 213.8 341.978 213.739 342.153 213.685C344.677 212.818 347.274 212.142 349.917 211.666C351.365 211.409 352.827 211.221 354.295 211.101C358.091 210.798 361.915 211.048 365.627 211.843C373.027 213.428 379.795 217.183 383.803 223.04C383.906 223.189 384.005 223.337 384.105 223.49Z" fill="#E6E6E6"/>
<path d="M383.918 223.63C375.655 219.283 366.121 217.452 356.668 218.398C354.629 218.568 352.632 219.034 350.75 219.779C348.943 220.559 347.394 221.773 346.266 223.293C345.182 224.692 344.25 226.238 342.818 227.368C342.075 227.937 341.211 228.354 340.282 228.593C339.353 228.831 338.38 228.885 337.427 228.752C335.042 228.476 332.907 227.425 330.857 226.33C328.582 225.114 326.239 223.818 323.555 223.642C323.23 223.62 323.284 223.155 323.609 223.176C328.279 223.484 331.691 226.934 336.088 228.031C338.139 228.543 340.37 228.486 342.13 227.277C343.669 226.22 344.632 224.626 345.715 223.202C346.793 221.703 348.251 220.472 349.962 219.614C351.797 218.783 353.771 218.247 355.8 218.028C360.361 217.468 364.988 217.574 369.513 218.342C374.682 219.192 379.656 220.854 384.219 223.254C384.501 223.403 384.198 223.778 383.918 223.63V223.63Z" fill="white"/>
<path d="M359.692 217.927C359.736 216.44 360.35 215.016 361.425 213.908C362.5 212.801 363.966 212.083 365.562 211.882C365.885 211.843 365.966 212.305 365.643 212.344C364.157 212.529 362.792 213.198 361.793 214.231C360.794 215.264 360.227 216.593 360.196 217.978C360.188 218.279 359.685 218.227 359.692 217.927V217.927Z" fill="white"/>
<path d="M346.714 222.517C348.955 224.744 352.023 226.108 355.304 226.337C355.629 226.36 355.574 226.825 355.25 226.803C351.835 226.558 348.646 225.133 346.319 222.811C346.098 222.589 346.493 222.297 346.714 222.517H346.714Z" fill="white"/>
<path d="M374.311 219.71C374.165 220.282 374.174 220.879 374.339 221.447C374.504 222.015 374.818 222.536 375.255 222.964C375.479 223.183 375.083 223.474 374.86 223.257C374.38 222.782 374.034 222.206 373.85 221.579C373.667 220.952 373.652 220.293 373.808 219.659C373.817 219.598 373.851 219.543 373.903 219.505C373.955 219.466 374.021 219.447 374.087 219.452C374.154 219.459 374.214 219.49 374.256 219.538C374.299 219.586 374.318 219.648 374.311 219.71V219.71Z" fill="white"/>
<path d="M117.128 202.981C124.115 193.187 136.614 186.102 149.201 187.626C139.207 196.428 132.904 208.212 131.407 220.895C130.848 225.788 130.779 231.284 126.992 234.742C124.635 236.894 121.204 237.796 117.892 237.827C114.579 237.858 111.323 237.107 108.111 236.36L107.306 236.536C107.842 224.814 110.14 212.776 117.128 202.981Z" fill="#E6E6E6"/>
<path d="M149.202 187.873C139.456 191.501 131.195 197.876 125.592 206.091C124.352 207.84 123.418 209.758 122.825 211.775C122.315 213.758 122.389 215.831 123.039 217.778C123.606 219.604 124.415 221.412 124.491 223.335C124.514 224.319 124.312 225.297 123.898 226.204C123.484 227.112 122.866 227.928 122.087 228.599C120.192 230.319 117.741 231.306 115.308 232.195C112.607 233.182 109.784 234.167 107.776 236.194C107.532 236.44 107.134 236.077 107.377 235.832C110.871 232.305 116.446 231.942 120.492 229.176C122.38 227.886 123.859 226.062 123.934 223.823C123.999 221.865 123.167 220 122.576 218.155C121.911 216.264 121.758 214.252 122.129 212.294C122.61 210.255 123.462 208.306 124.65 206.532C127.256 202.497 130.532 198.866 134.358 195.772C138.703 192.218 143.674 189.378 149.056 187.373C149.389 187.249 149.533 187.749 149.202 187.872L149.202 187.873Z" fill="white"/>
<path d="M127.228 203.347C125.864 202.292 124.951 200.822 124.651 199.202C124.352 197.581 124.685 195.915 125.592 194.5C125.777 194.214 126.266 194.466 126.081 194.752C125.234 196.068 124.923 197.62 125.206 199.129C125.488 200.637 126.345 202.003 127.621 202.979C127.898 203.192 127.504 203.559 127.228 203.347V203.347Z" fill="white"/>
<path d="M122.62 216.886C126.245 216.621 129.629 215.102 132.097 212.633C132.341 212.388 132.739 212.752 132.495 212.996C129.922 215.561 126.397 217.135 122.624 217.403C122.264 217.429 122.262 216.912 122.62 216.886H122.62Z" fill="white"/>
<path d="M138.934 192.87C139.369 193.38 139.935 193.782 140.58 194.04C141.226 194.299 141.93 194.404 142.631 194.349C142.99 194.319 142.992 194.836 142.635 194.866C141.86 194.924 141.083 194.806 140.369 194.522C139.655 194.239 139.028 193.798 138.541 193.238C138.49 193.189 138.462 193.124 138.461 193.056C138.461 192.988 138.488 192.923 138.538 192.873C138.59 192.824 138.661 192.797 138.735 192.796C138.809 192.796 138.881 192.822 138.934 192.87H138.934Z" fill="white"/>
<path d="M172.056 221.266C171.832 221.29 171.609 221.315 171.383 221.343C168.377 221.685 165.407 222.252 162.501 223.039C162.275 223.096 162.047 223.158 161.824 223.221C154.844 225.185 148.32 228.33 142.582 232.495C140.301 234.154 138.159 235.972 136.176 237.932C133.438 240.638 130.702 243.774 127.257 245.437C126.9 245.615 126.531 245.771 126.153 245.906L107.6 237.429C107.568 237.391 107.534 237.356 107.503 237.317L106.745 237.009C106.84 236.902 106.94 236.792 107.035 236.684C107.09 236.622 107.148 236.561 107.203 236.498C107.241 236.457 107.279 236.416 107.31 236.377C107.323 236.363 107.335 236.349 107.346 236.339C107.377 236.3 107.411 236.267 107.44 236.232C108.001 235.617 108.568 235.004 109.14 234.394C109.142 234.39 109.142 234.39 109.148 234.388C113.52 229.751 118.35 225.41 123.739 221.884C123.901 221.778 124.065 221.668 124.235 221.566C126.674 219.989 129.248 218.599 131.931 217.41C133.403 216.764 134.909 216.186 136.444 215.68C140.413 214.38 144.578 213.664 148.787 213.56C157.179 213.354 165.548 215.629 171.598 220.862C171.753 220.996 171.903 221.128 172.056 221.266Z" fill="#E6E6E6"/>
<path d="M171.898 221.465C161.752 218.939 151.003 219.432 141.178 222.874C139.049 223.58 137.053 224.592 135.265 225.873C133.567 227.172 132.276 228.868 131.526 230.785C130.789 232.559 130.257 234.452 129.065 236.03C128.443 236.829 127.644 237.497 126.722 237.991C125.8 238.485 124.776 238.793 123.716 238.895C121.083 239.213 118.482 238.638 115.961 237.994C113.161 237.279 110.265 236.495 107.341 236.996C106.987 237.057 106.906 236.545 107.259 236.485C112.347 235.613 117.035 238.426 122.067 238.469C124.415 238.489 126.784 237.855 128.302 236.109C129.63 234.583 130.18 232.63 130.91 230.828C131.612 228.949 132.8 227.257 134.372 225.9C136.084 224.539 138.034 223.458 140.139 222.702C144.848 220.93 149.829 219.854 154.899 219.512C160.684 219.093 166.504 219.591 172.107 220.985C172.453 221.071 172.242 221.551 171.898 221.465V221.465Z" fill="white"/>
<path d="M144.271 221.594C143.87 219.992 144.099 218.31 144.915 216.85C145.732 215.389 147.083 214.244 148.729 213.619C149.063 213.494 149.289 213.967 148.955 214.093C147.422 214.672 146.162 215.738 145.405 217.1C144.648 218.462 144.442 220.029 144.825 221.518C144.908 221.842 144.354 221.916 144.271 221.594H144.271Z" fill="white"/>
<path d="M131.772 229.84C134.84 231.645 138.531 232.315 142.11 231.717C142.464 231.657 142.545 232.169 142.191 232.228C138.466 232.845 134.626 232.14 131.439 230.255C131.135 230.075 131.47 229.661 131.772 229.84V229.84Z" fill="white"/>
<path d="M160.443 219.741C160.459 220.391 160.649 221.027 160.996 221.592C161.343 222.157 161.836 222.634 162.432 222.979C162.738 223.155 162.402 223.569 162.098 223.394C161.442 223.01 160.898 222.483 160.513 221.859C160.128 221.236 159.914 220.534 159.89 219.817C159.881 219.749 159.901 219.681 159.945 219.627C159.989 219.572 160.053 219.535 160.126 219.523C160.199 219.514 160.274 219.531 160.333 219.572C160.393 219.613 160.432 219.674 160.443 219.741V219.741Z" fill="white"/>
<path d="M166.856 129.548C167.32 129.122 167.677 128.607 167.902 128.04C168.127 127.472 168.214 126.866 168.158 126.264C168.102 125.661 167.904 125.078 167.578 124.554C167.251 124.03 166.805 123.579 166.269 123.232L173.571 90.5699L165.693 92.8669L159.818 124.465C159.247 125.335 159.041 126.369 159.239 127.37C159.438 128.371 160.026 129.269 160.894 129.896C161.762 130.523 162.848 130.833 163.947 130.769C165.046 130.705 166.081 130.271 166.856 129.548V129.548Z" fill="#FFB6B6"/>
<path d="M183.736 42.2409L178.855 38.8363C178.855 38.8363 174.55 38.5545 173.788 45.7298C173.025 52.9051 168.251 80.4438 168.251 80.4438L160.783 112.41L171.121 114.507L179.119 80.0099L187.126 56.2104L183.736 42.2409Z" fill="#E6E6E6"/>
<path d="M180.018 101.389L156.607 84.5669C156.243 84.3042 156.006 83.9186 155.948 83.4947C155.891 83.0708 156.018 82.6431 156.301 82.3055L172.229 63.3737C172.513 63.0367 172.931 62.8177 173.389 62.7646C173.848 62.7116 174.311 62.8288 174.676 63.0907L198.086 79.9133C198.451 80.1759 198.688 80.5615 198.745 80.9855C198.803 81.4094 198.676 81.8371 198.393 82.1746L182.464 101.106C182.18 101.443 181.763 101.662 181.304 101.716C180.846 101.769 180.383 101.651 180.018 101.389V101.389Z" fill="#3F3D56"/>
<path d="M179.889 99.6486L158.465 84.2531C158.141 84.0199 157.93 83.6776 157.879 83.3012C157.829 82.9248 157.941 82.545 158.193 82.2453L172.632 65.0827C172.885 64.7835 173.255 64.5891 173.662 64.5419C174.07 64.4948 174.48 64.599 174.805 64.8315L196.229 80.227C196.553 80.4602 196.763 80.8025 196.814 81.179C196.865 81.5554 196.753 81.9351 196.501 82.2348L182.061 99.3974C181.809 99.6966 181.439 99.8911 181.031 99.9382C180.624 99.9853 180.213 99.8812 179.889 99.6486V99.6486Z" fill="white"/>
<path d="M161.273 83.8166C161.192 83.7583 161.14 83.6727 161.127 83.5786C161.114 83.4845 161.143 83.3896 161.205 83.3146L168.49 74.6566C168.553 74.5817 168.645 74.533 168.747 74.5213C168.798 74.5154 168.849 74.5188 168.898 74.5313C168.947 74.5437 168.993 74.565 169.033 74.5938C169.073 74.6226 169.107 74.6585 169.132 74.6993C169.157 74.7402 169.173 74.7852 169.179 74.8318C169.186 74.8784 169.182 74.9257 169.168 74.971C169.155 75.0163 169.132 75.0587 169.101 75.0957L161.816 83.7538C161.753 83.8285 161.661 83.8772 161.559 83.8889C161.457 83.9007 161.354 83.8747 161.273 83.8166V83.8166Z" fill="#E4E4E4"/>
<path d="M162.481 84.6841C162.4 84.6258 162.347 84.5402 162.334 84.4461C162.322 84.352 162.35 84.2571 162.413 84.1822L169.697 75.5242C169.76 75.4493 169.853 75.4006 169.954 75.3888C170.056 75.377 170.159 75.4031 170.24 75.4613C170.321 75.5196 170.374 75.6052 170.387 75.6993C170.399 75.7934 170.371 75.8884 170.308 75.9633L163.024 84.6213C162.961 84.6961 162.868 84.7447 162.766 84.7565C162.664 84.7683 162.562 84.7422 162.481 84.6841Z" fill="#E4E4E4"/>
<path d="M167.815 80.6467C167.734 80.5884 167.681 80.5028 167.668 80.4087C167.656 80.3146 167.684 80.2197 167.747 80.1448L170.904 76.3917C170.935 76.3546 170.974 76.3234 171.018 76.3001C171.063 76.2768 171.111 76.2618 171.162 76.2559C171.212 76.2501 171.264 76.2534 171.313 76.2659C171.362 76.2783 171.408 76.2996 171.448 76.3284C171.488 76.3573 171.522 76.3932 171.547 76.4341C171.572 76.475 171.588 76.52 171.594 76.5667C171.601 76.6134 171.597 76.6607 171.583 76.706C171.57 76.7514 171.547 76.7938 171.515 76.8309L168.358 80.5839C168.295 80.6587 168.202 80.7073 168.1 80.7191C167.998 80.7309 167.896 80.7049 167.815 80.6467V80.6467Z" fill="#E4E4E4"/>
<path d="M169.443 88.0116C169.362 87.9533 169.309 87.8678 169.296 87.7737C169.284 87.6796 169.312 87.5846 169.375 87.5097L180.874 73.8414C180.905 73.8043 180.944 73.7733 180.988 73.7501C181.033 73.7268 181.081 73.7119 181.132 73.7061C181.182 73.7002 181.233 73.7036 181.282 73.7161C181.331 73.7285 181.377 73.7498 181.417 73.7786C181.457 73.8074 181.491 73.8433 181.516 73.8841C181.541 73.9249 181.557 73.9699 181.564 74.0165C181.57 74.0632 181.566 74.1105 181.553 74.1557C181.539 74.201 181.516 74.2434 181.485 74.2805L169.986 87.9488C169.923 88.0236 169.83 88.0723 169.728 88.084C169.626 88.0958 169.524 88.0698 169.443 88.0116V88.0116Z" fill="#E4E4E4"/>
<path d="M170.65 88.8792C170.569 88.8209 170.516 88.7353 170.503 88.6412C170.491 88.5471 170.519 88.4522 170.582 88.3772L182.081 74.7089C182.113 74.6719 182.151 74.6408 182.196 74.6176C182.24 74.5944 182.289 74.5794 182.339 74.5736C182.389 74.5677 182.441 74.5711 182.49 74.5836C182.539 74.596 182.584 74.6173 182.625 74.6461C182.665 74.675 182.698 74.7108 182.723 74.7516C182.749 74.7925 182.765 74.8375 182.771 74.8841C182.777 74.9307 182.774 74.978 182.76 75.0233C182.747 75.0686 182.724 75.111 182.693 75.1481L171.193 88.8164C171.13 88.8912 171.037 88.9398 170.935 88.9516C170.834 88.9633 170.731 88.9373 170.65 88.8792V88.8792Z" fill="#E4E4E4"/>
<path d="M173.39 90.8486C173.309 90.7903 173.257 90.7047 173.244 90.6106C173.231 90.5165 173.26 90.4216 173.322 90.3466L184.822 76.6783C184.853 76.6412 184.892 76.6102 184.936 76.587C184.98 76.5637 185.029 76.5488 185.08 76.543C185.13 76.5371 185.181 76.5405 185.23 76.553C185.279 76.5654 185.325 76.5867 185.365 76.6155C185.405 76.6443 185.439 76.6802 185.464 76.721C185.489 76.7619 185.505 76.8069 185.512 76.8535C185.518 76.9001 185.514 76.9474 185.501 76.9927C185.487 77.038 185.464 77.0803 185.433 77.1174L173.933 90.7857C173.87 90.8605 173.778 90.9092 173.676 90.9209C173.574 90.9327 173.471 90.9067 173.39 90.8486V90.8486Z" fill="#E4E4E4"/>
<path d="M174.598 91.7161C174.517 91.6578 174.464 91.5722 174.451 91.4781C174.439 91.384 174.467 91.2891 174.53 91.2141L186.029 77.5458C186.061 77.5088 186.099 77.4777 186.143 77.4545C186.188 77.4313 186.236 77.4163 186.287 77.4105C186.337 77.4047 186.388 77.4081 186.437 77.4205C186.486 77.433 186.532 77.4542 186.572 77.483C186.613 77.5119 186.646 77.5477 186.671 77.5886C186.696 77.6294 186.713 77.6744 186.719 77.721C186.725 77.7676 186.722 77.8149 186.708 77.8602C186.695 77.9055 186.672 77.9479 186.64 77.985L175.141 91.6533C175.078 91.7281 174.985 91.7767 174.883 91.7885C174.781 91.8002 174.679 91.7742 174.598 91.7161V91.7161Z" fill="#E4E4E4"/>
<path d="M177.338 93.6855C177.257 93.6272 177.205 93.5416 177.192 93.4475C177.179 93.3534 177.207 93.2585 177.27 93.1836L188.77 79.5153C188.801 79.4782 188.84 79.4471 188.884 79.4239C188.928 79.4007 188.977 79.3857 189.027 79.3799C189.078 79.3741 189.129 79.3775 189.178 79.3899C189.227 79.4024 189.273 79.4236 189.313 79.4524C189.353 79.4813 189.387 79.5171 189.412 79.5579C189.437 79.5988 189.453 79.6438 189.459 79.6904C189.466 79.737 189.462 79.7843 189.449 79.8296C189.435 79.8749 189.412 79.9173 189.381 79.9544L177.881 93.6227C177.818 93.6975 177.726 93.7461 177.624 93.7579C177.522 93.7696 177.419 93.7436 177.338 93.6855Z" fill="#E4E4E4"/>
<path d="M178.545 94.553C178.465 94.4947 178.412 94.4091 178.399 94.315C178.386 94.2209 178.415 94.126 178.477 94.051L189.977 80.3828C190.04 80.3082 190.133 80.2598 190.235 80.2482C190.336 80.2366 190.439 80.2627 190.52 80.3208C190.6 80.379 190.653 80.4643 190.666 80.5583C190.679 80.6522 190.651 80.747 190.588 80.8219L179.089 94.4902C179.025 94.565 178.933 94.6136 178.831 94.6254C178.729 94.6372 178.627 94.6111 178.545 94.553V94.553Z" fill="#E4E4E4"/>
<path d="M159.326 110.427C159.414 110.427 159.485 110.361 159.485 110.28C159.485 110.199 159.414 110.133 159.326 110.133C159.238 110.133 159.167 110.199 159.167 110.28C159.167 110.361 159.238 110.427 159.326 110.427Z" fill="white"/>
<path d="M182.481 9.23289C181.922 12.0082 181.006 14.7117 179.751 17.2856C172.567 31.3307 193.026 26.7527 200.337 26.7527C208.33 26.7527 215.978 30.6374 214.81 13.3764C214.311 6.0032 208.33 0 200.337 0C193.509 0 183.909 2.80476 182.481 9.23289Z" fill="#2F2E41"/>
<path d="M207.788 215.224H200.977L197.736 190.946H207.788V215.224Z" fill="#FFB6B6"/>
<path d="M211.382 226.13H206.498L205.626 221.868L203.394 226.13H190.44C189.819 226.13 189.214 225.946 188.714 225.606C188.214 225.266 187.844 224.787 187.66 224.239C187.475 223.691 187.484 223.103 187.687 222.561C187.889 222.018 188.274 221.55 188.785 221.224L199.13 214.621V210.313L210.01 210.913L211.382 226.13Z" fill="#2F2E41"/>
<path d="M248.249 207.281L242.784 211.037L224.508 193.343L232.574 187.799L248.249 207.281Z" fill="#FFB6B6"/>
<path d="M258.175 214.05L254.256 216.743L250.805 213.804L251.765 218.455L241.37 225.599C240.872 225.941 240.268 226.128 239.647 226.131C239.026 226.134 238.42 225.953 237.918 225.615C237.416 225.278 237.044 224.8 236.857 224.253C236.669 223.706 236.675 223.118 236.875 222.575L240.912 211.572L238.131 208.115L247.249 202.596L258.175 214.05Z" fill="#2F2E41"/>
<path d="M185.482 103.491L217.812 98.837L211.383 80.962H185.482V103.491Z" fill="#FFB6B6"/>
<path d="M215.717 89.9647C215.717 89.9647 228.639 100.282 222.677 129.695L215.398 158.515L235.229 190.334L225.145 195.417L200.707 164.026L189.524 139.784L183.609 97.2963L215.717 89.9647Z" fill="#2F2E41"/>
<path d="M195.688 146.693L194.911 157.817L197.186 190.758L208.482 194.352L210.621 160.601L195.688 146.693Z" fill="#2F2E41"/>
<path d="M192.215 30.4549L204.712 30.9055L209.693 38.5462L221.056 40.5963L214.273 72.3124L215.52 90.3648L204.205 90.301C196.051 90.2551 188.165 92.993 182.061 97.9896V97.9896L182.399 74.5561L177.532 57.0633L178.626 38.721L187.767 37.665L192.215 30.4549Z" fill="#E6E6E6"/>
<path d="M199.139 26.7494C205.635 26.7494 210.9 21.8828 210.9 15.8796C210.9 9.87638 205.635 5.0098 199.139 5.0098C192.643 5.0098 187.377 9.87638 187.377 15.8796C187.377 21.8828 192.643 26.7494 199.139 26.7494Z" fill="#FFB6B6"/>
<path d="M191.152 4.79935C193.213 3.63816 195.573 3.01002 197.987 2.98061C200.4 2.95121 202.778 3.52161 204.872 4.63219C206.965 5.74276 208.697 7.35271 209.887 9.29369C211.077 11.2347 211.68 13.4354 211.635 15.6658C205.641 17.0564 199.345 18.1206 192.954 15.9984L191.445 12.5845L190.555 16.0009C188.609 16.7362 186.657 17.3582 184.706 15.9938C184.626 13.7698 185.18 11.5653 186.311 9.60083C187.442 7.63636 189.111 5.9807 191.152 4.79935Z" fill="#2F2E41"/>
<path d="M218.881 112.28L220.466 125.577C220.577 125.909 220.799 126.2 221.102 126.406C221.404 126.612 221.769 126.723 222.145 126.723H229.453C229.829 126.723 230.195 126.612 230.497 126.406C230.799 126.2 231.022 125.909 231.132 125.577L232.445 115.385C232.825 115.557 233.242 115.643 233.664 115.637C234.086 115.63 234.501 115.531 234.873 115.348C235.246 115.164 235.566 114.902 235.808 114.582C236.049 114.262 236.205 113.893 236.262 113.507C236.32 113.12 236.277 112.727 236.137 112.358C235.998 111.99 235.766 111.658 235.461 111.388C235.155 111.119 234.785 110.921 234.38 110.809C233.976 110.698 233.548 110.677 233.133 110.748C232.969 110.569 232.765 110.426 232.535 110.327C232.305 110.229 232.054 110.178 231.801 110.179H220.56C220.285 110.179 220.014 110.239 219.768 110.353C219.523 110.467 219.31 110.634 219.147 110.838C218.984 111.042 218.874 111.279 218.828 111.529C218.782 111.78 218.8 112.037 218.881 112.28V112.28ZM232.675 114.696L233.479 112.28C233.572 112.001 233.582 111.704 233.506 111.42C233.54 111.419 233.573 111.411 233.607 111.411C234.113 111.411 234.597 111.596 234.954 111.926C235.311 112.257 235.512 112.704 235.512 113.171C235.512 113.638 235.311 114.085 234.954 114.416C234.597 114.746 234.113 114.931 233.607 114.931C233.28 114.929 232.958 114.848 232.675 114.696V114.696Z" fill="#6C63FF"/>
<path d="M229.901 126.733C229.44 126.304 229.086 125.787 228.864 125.219C228.643 124.65 228.558 124.043 228.618 123.442C228.677 122.84 228.878 122.257 229.208 121.735C229.537 121.213 229.986 120.763 230.524 120.419L223.401 87.7229L231.267 90.0569L236.968 121.682C237.534 122.555 237.734 123.589 237.53 124.589C237.327 125.589 236.733 126.486 235.862 127.108C234.991 127.731 233.903 128.036 232.804 127.967C231.706 127.898 230.673 127.459 229.901 126.733V126.733Z" fill="#FFB6B6"/>
<path d="M216.176 44.001L221.056 40.5963C221.056 40.5963 225.361 40.3146 226.124 47.4899C226.886 54.6652 231.66 82.2038 231.66 82.2038L239.128 114.17L228.791 116.267L220.792 81.7699L212.785 57.9705L216.176 44.001Z" fill="#E6E6E6"/>
<path d="M174.055 73.7644C175.581 73.7644 176.818 72.6213 176.818 71.2112C176.818 69.8011 175.581 68.6581 174.055 68.6581C172.53 68.6581 171.293 69.8011 171.293 71.2112C171.293 72.6213 172.53 73.7644 174.055 73.7644Z" fill="#6C63FF"/>
<path d="M85.961 244.842L91.7183 244.842L94.4574 224.319L85.96 224.32L85.961 244.842Z" fill="#FFB6B6"/>
<path d="M84.4924 243.105L86.1129 243.105L92.4397 240.727L95.8306 243.105H95.831C97.7473 243.105 99.5851 243.808 100.94 245.061C102.295 246.313 103.056 248.011 103.057 249.782V249.999L84.4928 250L84.4924 243.105Z" fill="#2F2E41"/>
<path d="M108.272 241.489L113.888 242.661L121.451 223.2L113.162 221.47L108.272 241.489Z" fill="#FFB6B6"/>
<path d="M107.253 239.496L108.834 239.826L115.572 238.794L118.313 241.804L118.313 241.804C120.183 242.194 121.808 243.254 122.831 244.752C123.854 246.249 124.192 248.061 123.77 249.788L123.718 250L105.61 246.221L107.253 239.496Z" fill="#2F2E41"/>
<path d="M75.4211 139.275L80.6273 193.182C80.6273 193.182 78.6766 225.545 84.9711 236.934H94.0999L98.6197 190.227L99.1873 158.876L118.759 185.325L106.293 236.17L117.528 237.098L137.757 181.92L115.533 130.12L75.4211 139.275Z" fill="#2F2E41"/>
<path d="M80.8736 53.4291C88.2888 53.4291 94.3 47.8737 94.3 41.0207C94.3 34.1677 88.2888 28.6122 80.8736 28.6122C73.4584 28.6122 67.4472 34.1677 67.4472 41.0207C67.4472 47.8737 73.4584 53.4291 80.8736 53.4291Z" fill="#FFB8B8"/>
<path d="M104.476 65.2538L93.4613 60.886L88.0992 55.6297L74.7039 57.6263L71.1498 63.2582L59.6448 73.1451L73.1243 129.472L72.7162 141.775C72.7162 141.775 81.3435 145.364 118.758 137.1C119.207 137.001 118.268 136.567 118.268 136.567L104.476 65.2538Z" fill="#3F3D56"/>
<path d="M66.9122 48.0615C66.8187 47.9435 66.726 47.8245 66.6343 47.7046C66.5974 47.7766 66.568 47.8511 66.5259 47.9214L66.9122 48.0615Z" fill="#2F2E41"/>
<path d="M94.2293 31.9444C93.3319 30.1375 91.7317 28.7088 89.7468 27.9422C87.7794 27.2089 85.5806 27.2107 83.6146 27.9472C81.8396 26.9108 79.8674 26.0891 77.7904 25.9874C75.7134 25.8856 73.5174 26.5977 72.2375 28.1653C71.9516 28.5791 71.627 28.9689 71.2673 29.3301C70.2384 30.2107 68.6749 30.0837 67.3073 29.9036C67.9207 30.3895 68.5342 30.8753 69.1479 31.3612C68.4054 31.5404 67.6629 31.7197 66.9203 31.8989C67.7868 32.3846 68.6532 32.8703 69.5196 33.356C67.0042 34.7513 65.8609 37.7968 66.1629 40.5628C66.4486 43.1815 67.8166 45.5761 69.4519 47.7046C70.1043 46.4323 69.9637 44.9099 69.953 43.477C69.9417 41.9629 70.2316 40.2436 71.5443 39.3975C72.4299 38.8267 73.5686 38.8012 74.6364 38.8066C80.0229 38.8339 85.4033 39.1443 90.7516 39.7364C91.4773 39.7654 92.1849 39.9551 92.8148 40.2894C93.9975 41.0351 94.228 42.574 94.3467 43.9241C94.9716 41.6949 95.2774 39.3996 95.2564 37.0969C95.309 35.3318 94.959 33.5763 94.2293 31.9444V31.9444Z" fill="#2F2E41"/>
<path d="M98.4094 177.064C110.08 177.064 119.542 168.32 119.542 157.534C119.542 146.748 110.08 138.004 98.4094 138.004C86.7384 138.004 77.2772 146.748 77.2772 157.534C77.2772 168.32 86.7384 177.064 98.4094 177.064Z" fill="white"/>
<path d="M98.4095 137.57C97.3232 137.57 96.2385 137.646 95.1644 137.796C94.615 137.869 94.0798 137.965 93.549 138.082C89.6505 138.913 86.0783 140.728 83.231 143.325C80.3837 145.923 78.3733 149.2 77.4241 152.792C76.4749 156.384 76.6242 160.149 77.8554 163.667C79.0865 167.185 81.3511 170.318 84.3965 172.715C84.7581 172.998 85.1243 173.271 85.5047 173.531C88.2463 175.421 91.4341 176.681 94.8057 177.209C98.1774 177.737 101.637 177.518 104.898 176.569C108.16 175.62 111.132 173.969 113.568 171.751C116.005 169.533 117.837 166.813 118.913 163.813C119.99 160.813 120.28 157.62 119.76 154.496C119.241 151.372 117.926 148.407 115.924 145.845C113.922 143.283 111.29 141.196 108.245 139.758C105.2 138.319 101.829 137.569 98.4095 137.57V137.57ZM98.4095 176.63C94.0159 176.635 89.7366 175.337 86.1997 172.928C85.8147 172.668 85.4437 172.399 85.0821 172.112C82.1151 169.799 79.9135 166.76 78.73 163.343C77.5465 159.927 77.429 156.271 78.3909 152.795C79.3527 149.32 81.3551 146.165 84.1682 143.693C86.9814 141.221 90.4914 139.532 94.2958 138.82C94.8216 138.72 95.3476 138.642 95.883 138.581C96.7212 138.485 97.5649 138.437 98.4095 138.438C103.89 138.438 109.145 140.45 113.02 144.031C116.895 147.612 119.072 152.469 119.072 157.534C119.072 162.599 116.895 167.456 113.02 171.037C109.145 174.618 103.89 176.63 98.4095 176.63V176.63Z" fill="#3F3D56"/>
<path d="M88.0444 153.628H108.775C109.534 153.628 110.15 153.059 110.15 152.357V152.295C110.15 151.593 109.534 151.024 108.775 151.024H88.0444C87.2849 151.024 86.6693 151.593 86.6693 152.295V152.357C86.6693 153.059 87.2849 153.628 88.0444 153.628Z" fill="#6C63FF"/>
<path d="M88.0444 158.836H108.775C109.534 158.836 110.15 158.267 110.15 157.565V157.503C110.15 156.801 109.534 156.232 108.775 156.232H88.0444C87.2849 156.232 86.6693 156.801 86.6693 157.503V157.565C86.6693 158.267 87.2849 158.836 88.0444 158.836Z" fill="#6C63FF"/>
<path d="M88.0444 164.044H108.775C109.534 164.044 110.15 163.475 110.15 162.773V162.711C110.15 162.009 109.534 161.44 108.775 161.44H88.0444C87.2849 161.44 86.6693 162.009 86.6693 162.711V162.773C86.6693 163.475 87.2849 164.044 88.0444 164.044Z" fill="#6C63FF"/>
<path d="M334.833 244.18L328.796 244.18L325.924 222.66L334.834 222.66L334.833 244.18Z" fill="#9E616A"/>
<path d="M306.273 244.18L300.236 244.18L297.364 222.66L306.274 222.66L306.273 244.18Z" fill="#9E616A"/>
<path d="M306.485 250L287.921 249.999V249.782C287.922 248.011 288.683 246.313 290.038 245.061C291.393 243.808 293.231 243.105 295.147 243.105H295.147L298.538 240.727L304.865 243.105L306.486 243.105L306.485 250Z" fill="#2F2E41"/>
<path d="M335.82 250L317.256 249.999V249.782C317.256 248.011 318.017 246.313 319.372 245.061C320.727 243.808 322.565 243.105 324.481 243.105H324.482L327.873 240.727L334.199 243.105L335.82 243.105L335.82 250Z" fill="#2F2E41"/>
<path d="M300.351 116.819L291.176 168.449L293.673 176.143L290.397 181.592L295.208 229.446L293.255 233.42L298.712 236.53H309.816L310.405 193.208L313.148 186.847V183.341L318.732 156.924L319.76 193.92L321.384 200.29L320.02 204.826L321.803 208.004L326.538 237.474H338.989L338.026 230.618C339.111 230.111 339.982 229.284 340.503 228.269C341.024 227.254 341.165 226.108 340.905 225.011L340.191 222.006L341.816 213.12L344.774 163.549L343.94 123.551L329.375 113.258L300.351 116.819Z" fill="#2F2E41"/>
<path d="M321.384 50.5204C327.773 50.5204 332.952 45.7339 332.952 39.8293C332.952 33.9248 327.773 29.1382 321.384 29.1382C314.995 29.1382 309.816 33.9248 309.816 39.8293C309.816 45.7339 314.995 50.5204 321.384 50.5204Z" fill="#9E616A"/>
<path d="M296.109 137.308C296.613 136.827 296.996 136.25 297.232 135.618C297.468 134.985 297.551 134.313 297.476 133.647C297.4 132.982 297.168 132.34 296.794 131.767C296.421 131.193 295.917 130.703 295.316 130.329L299.815 114.607L291.148 117.301L288.205 131.818C287.593 132.792 287.388 133.94 287.63 135.044C287.872 136.147 288.544 137.131 289.519 137.808C290.493 138.484 291.702 138.807 292.917 138.715C294.131 138.623 295.267 138.122 296.109 137.308H296.109Z" fill="#9E616A"/>
<path d="M300.843 61.8247L298.983 61.4679L297.396 62.2797C297.396 62.2797 292.965 67.7407 292.965 72.7466C292.965 77.7524 287.548 125.991 287.548 125.991L297.396 130.086L305.275 92.3149L300.843 61.8247Z" fill="#E6E6E6"/>
<path d="M331.515 31.9908C331.515 31.9908 334.54 26.6452 327.884 26.1593C327.884 26.1593 322.209 21.4019 316.425 25.2895C316.425 25.2895 313.27 25.2895 311.545 28.5891C311.545 28.5891 309.064 27.7193 308.518 30.0469C308.518 30.0469 306.703 34.9066 308.518 39.2802C310.334 43.6538 310.937 44.1398 310.937 44.1398C310.937 44.1398 307.954 34.9702 315.216 34.4843C322.478 33.9983 330.605 29.804 331.21 35.1495C331.815 40.4951 332.726 41.8122 332.726 41.8122C332.726 41.8122 338.474 34.1776 331.515 31.9908Z" fill="#2F2E41"/>
<path d="M373.773 181.592C372.9 181.593 372.057 181.296 371.406 180.758L336.397 151.957C335.692 151.375 335.265 150.558 335.21 149.686C335.155 148.814 335.477 147.957 336.105 147.304L358.532 124.02C359.161 123.367 360.045 122.973 360.989 122.922C361.933 122.871 362.86 123.169 363.567 123.749L398.576 152.55C399.282 153.132 399.71 153.948 399.765 154.821C399.82 155.693 399.497 156.55 398.868 157.203L376.441 180.487C376.131 180.812 375.754 181.076 375.332 181.264C374.91 181.453 374.452 181.562 373.984 181.586C373.913 181.59 373.843 181.592 373.773 181.592Z" fill="white"/>
<path d="M373.772 181.804C372.843 181.805 371.946 181.489 371.254 180.916L336.245 152.115C335.494 151.496 335.04 150.627 334.981 149.698C334.923 148.77 335.265 147.858 335.933 147.163L358.361 123.878C359.031 123.185 359.971 122.765 360.975 122.711C361.98 122.657 362.967 122.973 363.719 123.591L398.728 152.392C399.48 153.011 399.935 153.88 399.993 154.808C400.052 155.737 399.709 156.649 399.04 157.344L376.612 180.628C376.282 180.973 375.881 181.254 375.432 181.455C374.983 181.656 374.495 181.773 373.998 181.798C373.922 181.802 373.847 181.804 373.772 181.804ZM361.197 123.551C360.791 123.551 360.389 123.63 360.018 123.783C359.647 123.937 359.315 124.161 359.045 124.442L336.618 147.726C336.111 148.254 335.852 148.945 335.896 149.649C335.94 150.354 336.285 151.013 336.854 151.482L371.863 180.283C372.146 180.516 372.475 180.694 372.832 180.809C373.189 180.924 373.567 180.972 373.944 180.952C374.322 180.932 374.691 180.843 375.031 180.691C375.372 180.539 375.676 180.326 375.927 180.065L398.355 156.781C398.862 156.254 399.123 155.562 399.078 154.858C399.034 154.153 398.689 153.494 398.119 153.025L363.109 124.223C362.583 123.79 361.902 123.55 361.197 123.551H361.197Z" fill="#3F3D56"/>
<path d="M386.468 159.541C386.09 159.541 385.725 159.413 385.442 159.18L357.962 136.572C357.81 136.448 357.686 136.297 357.597 136.128C357.508 135.96 357.456 135.776 357.444 135.589C357.431 135.402 357.46 135.214 357.526 135.037C357.593 134.859 357.696 134.696 357.831 134.556C357.966 134.416 358.13 134.302 358.313 134.22C358.496 134.138 358.694 134.091 358.897 134.08C359.1 134.07 359.303 134.096 359.494 134.158C359.686 134.22 359.862 134.317 360.014 134.442L387.495 157.05C387.728 157.242 387.893 157.495 387.968 157.776C388.042 158.057 388.022 158.352 387.911 158.623C387.799 158.893 387.602 159.125 387.344 159.289C387.086 159.453 386.781 159.541 386.468 159.541V159.541Z" fill="#6C63FF"/>
<path d="M381.226 164.982C380.848 164.983 380.483 164.855 380.201 164.622L352.72 142.014C352.569 141.89 352.445 141.739 352.357 141.57C352.269 141.402 352.217 141.219 352.206 141.032C352.194 140.845 352.222 140.658 352.289 140.481C352.355 140.304 352.459 140.141 352.594 140.001C352.728 139.861 352.892 139.747 353.074 139.666C353.256 139.584 353.454 139.536 353.657 139.526C353.859 139.515 354.062 139.541 354.253 139.602C354.444 139.664 354.621 139.76 354.772 139.884L382.253 162.492C382.487 162.684 382.652 162.938 382.726 163.219C382.8 163.499 382.781 163.795 382.669 164.065C382.558 164.335 382.36 164.567 382.102 164.731C381.844 164.895 381.539 164.983 381.226 164.982H381.226Z" fill="#6C63FF"/>
<path d="M375.984 170.425C375.606 170.426 375.241 170.297 374.959 170.064L347.478 147.457C347.326 147.332 347.203 147.182 347.114 147.013C347.026 146.844 346.974 146.661 346.962 146.474C346.95 146.287 346.978 146.1 347.045 145.922C347.112 145.745 347.215 145.582 347.35 145.442C347.485 145.302 347.648 145.188 347.831 145.107C348.014 145.025 348.212 144.978 348.414 144.967C348.617 144.956 348.819 144.982 349.011 145.044C349.202 145.106 349.379 145.202 349.53 145.326L377.011 167.934C377.245 168.127 377.41 168.38 377.484 168.661C377.558 168.942 377.539 169.237 377.427 169.507C377.316 169.777 377.118 170.01 376.86 170.174C376.603 170.338 376.297 170.425 375.984 170.425H375.984Z" fill="#6C63FF"/>
<path d="M344.558 138.236C344.205 137.651 343.995 137.003 343.943 136.336C343.891 135.668 343.998 134.999 344.256 134.374C344.514 133.749 344.918 133.184 345.438 132.718C345.958 132.253 346.582 131.899 347.267 131.68L347.296 115.418L354.921 120.083L353.724 134.81C354.045 135.897 353.923 137.055 353.381 138.064C352.84 139.073 351.917 139.863 350.787 140.286C349.657 140.708 348.399 140.732 347.251 140.355C346.103 139.977 345.144 139.223 344.558 138.236H344.558Z" fill="#9E616A"/>
<path d="M345.262 66.281L348.669 63.2465L351.171 64.9158C351.171 64.9158 353.633 67.6462 355.603 75.8376C357.573 84.0291 355.603 129.082 355.603 129.082L344.77 127.717L346.247 104.052L341.816 84.0291L345.262 66.281Z" fill="#E6E6E6"/>
<path d="M350.293 63.9867L338.816 58.9202L331.024 52.2409L316.815 52.1426L312.232 57.6494L300.131 61.4482L302.148 100.009L300.773 102.974C300.773 102.974 301.731 103.774 302.169 104.222C302.606 104.669 301.564 108.414 301.564 108.414L300.976 112.488L302.606 113.564L300.487 115.878L299.961 119.525C299.961 119.525 336.956 111.027 343.947 125.105C344.316 125.849 343.407 118.58 343.407 118.58L342.497 113.258L343.399 108.481L344.774 107.21L342.468 105.079L343.947 94.9662L350.293 63.9867Z" fill="#3F3D56"/>
<path d="M90.0241 149.474C90.3089 148.805 90.4317 148.087 90.3838 147.37C90.3359 146.653 90.1185 145.955 89.7469 145.324C89.3753 144.693 88.8586 144.145 88.233 143.719C87.6075 143.292 86.8885 142.998 86.1265 142.856L83.577 125.555L76.1851 131.526L79.7393 147.041C79.5665 148.239 79.8755 149.455 80.6078 150.457C81.34 151.46 82.4447 152.179 83.7124 152.479C84.9801 152.779 86.3229 152.638 87.4861 152.085C88.6494 151.531 89.5524 150.602 90.0241 149.474V149.474Z" fill="#FFB8B8"/>
<path d="M61.0633 72.8287L59.0597 73.1834L57.8486 74.5925C57.8486 74.5925 55.8893 81.6947 58.1212 86.6581C60.3531 91.6214 76.4901 141.513 76.4901 141.513L88.0807 141.823L79.0517 101.372L61.0633 72.8287Z" fill="#3F3D56"/>
<path d="M106.757 146.936C106.223 146.414 105.819 145.79 105.575 145.108C105.33 144.426 105.25 143.703 105.34 142.99C105.43 142.276 105.689 141.59 106.097 140.978C106.506 140.367 107.054 139.846 107.704 139.452L103.089 122.52L112.357 125.514L115.319 141.134C115.963 142.187 116.166 143.421 115.891 144.604C115.616 145.786 114.881 146.834 113.826 147.549C112.771 148.264 111.468 148.597 110.165 148.484C108.862 148.371 107.65 147.82 106.757 146.936V146.936Z" fill="#FFB8B8"/>
<path d="M102.708 65.8381L104.71 65.4768L106.402 66.367C106.402 66.367 111.085 72.2819 111.017 77.6565C110.948 83.031 116.103 134.885 116.103 134.885L105.474 139.167L97.5321 98.522L102.708 65.8381Z" fill="#3F3D56"/>
</g>
<defs>
<clipPath id="clip0_3_4">
<rect width="400" height="250" fill="white"/>
</clipPath>
</defs>
</svg>
